<mxfile host="app.diagrams.net" modified="2022-11-06T17:32:11.266Z" agent="5.0 (Windows NT 10.0; Win64; x64) AppleWebKit/537.36 (KHTML, like Gecko) Chrome/107.0.0.0 Safari/537.36" etag="pk4ztonUDAYmlaV2YnYH" version="20.5.1" type="github">
  <diagram id="R64Xe-4D89ugxDravUpu" name="Page-1">
    <mxGraphModel dx="1564" dy="936" grid="0" gridSize="10" guides="1" tooltips="1" connect="1" arrows="1" fold="1" page="1" pageScale="1" pageWidth="850" pageHeight="1100" math="0" shadow="0">
      <root>
        <mxCell id="0" />
        <mxCell id="1" parent="0" />
        <mxCell id="blcPtwq0HRkPqj8c_XCj-43" value="" style="rounded=1;whiteSpace=wrap;html=1;strokeColor=#9673a6;fillColor=#e1d5e7;" parent="1" vertex="1">
          <mxGeometry x="517.5" y="280" width="167.5" height="167" as="geometry" />
        </mxCell>
        <mxCell id="T0MDe37_gaRGIy5fR7pK-4" value="" style="rounded=1;whiteSpace=wrap;html=1;strokeColor=#b85450;fillColor=#f8cecc;" parent="1" vertex="1">
          <mxGeometry x="484.25" y="471" width="199" height="119" as="geometry" />
        </mxCell>
        <mxCell id="blcPtwq0HRkPqj8c_XCj-63" value="" style="rounded=1;whiteSpace=wrap;html=1;strokeColor=#82b366;strokeWidth=1;fillColor=#d5e8d4;" parent="1" vertex="1">
          <mxGeometry x="44" y="1070" width="316" height="80" as="geometry" />
        </mxCell>
        <mxCell id="blcPtwq0HRkPqj8c_XCj-61" value="" style="rounded=1;whiteSpace=wrap;html=1;strokeColor=#82b366;strokeWidth=1;fillColor=#d5e8d4;" parent="1" vertex="1">
          <mxGeometry x="30" y="620" width="650" height="410" as="geometry" />
        </mxCell>
        <mxCell id="blcPtwq0HRkPqj8c_XCj-36" value="" style="rounded=1;whiteSpace=wrap;html=1;fontColor=#1A1A1A;strokeColor=#1A1A1A;fillColor=none;" parent="1" vertex="1">
          <mxGeometry x="246.75" y="414" width="166.5" height="50" as="geometry" />
        </mxCell>
        <mxCell id="blcPtwq0HRkPqj8c_XCj-17" value="" style="rounded=1;arcSize=10;dashed=1;fillColor=none;gradientColor=none;dashPattern=8 3 1 3;strokeWidth=1;fontColor=#660066;" parent="1" vertex="1">
          <mxGeometry x="61.08" y="757" width="398.92" height="173" as="geometry" />
        </mxCell>
        <mxCell id="blcPtwq0HRkPqj8c_XCj-3" value="" style="rounded=1;whiteSpace=wrap;html=1;fillColor=#d5e8d4;strokeColor=#82b366;" parent="1" vertex="1">
          <mxGeometry x="29" y="280" width="440" height="300" as="geometry" />
        </mxCell>
        <mxCell id="9JFHtYomGAW6HpaSPqKZ-14" value="&lt;span lang=&quot;EN-GB&quot;&gt;TOC&#39;s Data Service&lt;/span&gt;" style="text;html=1;strokeColor=none;fillColor=none;align=center;verticalAlign=middle;whiteSpace=wrap;rounded=0;" parent="1" vertex="1">
          <mxGeometry x="273.79" y="825" width="82.42" height="52" as="geometry" />
        </mxCell>
        <mxCell id="Upe7RPbjq_lGZQcst3nU-63" value="&lt;span style=&quot;font-size:10.0pt;font-family:&lt;br/&gt;&amp;quot;Arial&amp;quot;,sans-serif;mso-fareast-font-family:&amp;quot;Times New Roman&amp;quot;;mso-ansi-language:&lt;br/&gt;EN-GB;mso-fareast-language:EN-US;mso-bidi-language:AR-SA&quot; lang=&quot;EN-GB&quot;&gt;ReadSpeaker&lt;/span&gt;" style="text;html=1;strokeColor=none;fillColor=none;align=center;verticalAlign=middle;whiteSpace=wrap;rounded=0;" parent="1" vertex="1">
          <mxGeometry x="537" y="348" width="105" height="46" as="geometry" />
        </mxCell>
        <mxCell id="9JFHtYomGAW6HpaSPqKZ-19" value="&lt;span lang=&quot;EN-GB&quot;&gt;Standard Announcement Service&lt;/span&gt;" style="text;html=1;strokeColor=none;fillColor=none;align=center;verticalAlign=middle;whiteSpace=wrap;rounded=0;" parent="1" vertex="1">
          <mxGeometry x="270" y="783" width="90" height="40" as="geometry" />
        </mxCell>
        <mxCell id="Upe7RPbjq_lGZQcst3nU-17" value="User Desktop&lt;br&gt;&amp;nbsp;Browser" style="text;html=1;strokeColor=none;fillColor=none;align=center;verticalAlign=middle;whiteSpace=wrap;rounded=0;" parent="1" vertex="1">
          <mxGeometry x="40" y="200" width="132.5" height="50" as="geometry" />
        </mxCell>
        <mxCell id="Upe7RPbjq_lGZQcst3nU-23" value="&lt;span lang=&quot;EN-GB&quot;&gt;Manage voices&lt;/span&gt;" style="text;html=1;strokeColor=none;fillColor=none;align=center;verticalAlign=middle;whiteSpace=wrap;rounded=0;" parent="1" vertex="1">
          <mxGeometry x="45.25" y="381" width="124.5" height="50" as="geometry" />
        </mxCell>
        <mxCell id="Upe7RPbjq_lGZQcst3nU-29" value="&lt;span lang=&quot;EN-GB&quot;&gt;Search Train Line Up&lt;/span&gt;" style="text;html=1;strokeColor=none;fillColor=none;align=center;verticalAlign=middle;whiteSpace=wrap;rounded=0;" parent="1" vertex="1">
          <mxGeometry x="340.92" y="374" width="105" height="50" as="geometry" />
        </mxCell>
        <mxCell id="Upe7RPbjq_lGZQcst3nU-31" value="&lt;span lang=&quot;EN-GB&quot;&gt;Search Announcements&lt;/span&gt;" style="text;html=1;strokeColor=none;fillColor=none;align=center;verticalAlign=middle;whiteSpace=wrap;rounded=0;" parent="1" vertex="1">
          <mxGeometry x="55.00000000000003" y="448" width="105" height="50" as="geometry" />
        </mxCell>
        <mxCell id="Upe7RPbjq_lGZQcst3nU-33" value="&lt;span lang=&quot;EN-GB&quot;&gt;Announcement Reports&lt;/span&gt;" style="text;html=1;strokeColor=none;fillColor=none;align=center;verticalAlign=middle;whiteSpace=wrap;rounded=0;" parent="1" vertex="1">
          <mxGeometry x="196.00000000000003" y="448" width="105" height="50" as="geometry" />
        </mxCell>
        <mxCell id="Upe7RPbjq_lGZQcst3nU-42" value="&lt;span lang=&quot;EN-GB&quot;&gt;Manage TOC data&lt;/span&gt;" style="text;html=1;strokeColor=none;fillColor=none;align=center;verticalAlign=middle;whiteSpace=wrap;rounded=0;" parent="1" vertex="1">
          <mxGeometry x="331.00000000000006" y="439.5" width="105" height="50" as="geometry" />
        </mxCell>
        <mxCell id="Upe7RPbjq_lGZQcst3nU-44" value="Manage Standard Announcements" style="text;html=1;strokeColor=none;fillColor=none;align=center;verticalAlign=middle;whiteSpace=wrap;rounded=0;" parent="1" vertex="1">
          <mxGeometry x="48.5" y="504" width="105" height="57" as="geometry" />
        </mxCell>
        <mxCell id="Upe7RPbjq_lGZQcst3nU-46" value="&lt;span lang=&quot;EN-GB&quot;&gt;Manage Dictionary&lt;/span&gt;" style="text;html=1;strokeColor=none;fillColor=none;align=center;verticalAlign=middle;whiteSpace=wrap;rounded=0;" parent="1" vertex="1">
          <mxGeometry x="191.07999999999998" y="504" width="105" height="50" as="geometry" />
        </mxCell>
        <mxCell id="Upe7RPbjq_lGZQcst3nU-65" value="&lt;span style=&quot;font-size:10.0pt;font-family:&lt;br/&gt;&amp;quot;Arial&amp;quot;,sans-serif;mso-fareast-font-family:&amp;quot;Times New Roman&amp;quot;;mso-ansi-language:&lt;br/&gt;EN-GB;mso-fareast-language:EN-US;mso-bidi-language:AR-SA&quot; lang=&quot;EN-GB&quot;&gt;Spelling/ Profanity&lt;br/&gt;filter&lt;/span&gt;" style="text;html=1;strokeColor=none;fillColor=none;align=center;verticalAlign=middle;whiteSpace=wrap;rounded=0;" parent="1" vertex="1">
          <mxGeometry x="542" y="390" width="105" height="50" as="geometry" />
        </mxCell>
        <mxCell id="Upe7RPbjq_lGZQcst3nU-72" value="&lt;span style=&quot;font-size:10.0pt;font-family:&lt;br/&gt;&amp;quot;Arial&amp;quot;,sans-serif;mso-fareast-font-family:&amp;quot;Times New Roman&amp;quot;;mso-ansi-language:&lt;br/&gt;EN-GB;mso-fareast-language:EN-US;mso-bidi-language:AR-SA&quot; lang=&quot;EN-GB&quot;&gt;OTPA AE&lt;/span&gt;" style="text;html=1;strokeColor=none;fillColor=none;align=center;verticalAlign=middle;whiteSpace=wrap;rounded=0;" parent="1" vertex="1">
          <mxGeometry x="485.25" y="500" width="105" height="29" as="geometry" />
        </mxCell>
        <mxCell id="Upe7RPbjq_lGZQcst3nU-74" value="&lt;span style=&quot;font-size:10.0pt;font-family:&lt;br/&gt;&amp;quot;Arial&amp;quot;,sans-serif;mso-fareast-font-family:&amp;quot;Times New Roman&amp;quot;;mso-ansi-language:&lt;br/&gt;EN-GB;mso-fareast-language:EN-US;mso-bidi-language:AR-SA&quot; lang=&quot;EN-GB&quot;&gt;Train lookup&lt;/span&gt;" style="text;html=1;strokeColor=none;fillColor=none;align=center;verticalAlign=middle;whiteSpace=wrap;rounded=0;" parent="1" vertex="1">
          <mxGeometry x="583" y="489.25" width="110" height="48.5" as="geometry" />
        </mxCell>
        <mxCell id="Upe7RPbjq_lGZQcst3nU-77" value="AWS Cognito" style="text;html=1;strokeColor=none;fillColor=none;align=center;verticalAlign=middle;whiteSpace=wrap;rounded=0;" parent="1" vertex="1">
          <mxGeometry x="527.08" y="295" width="105" height="50" as="geometry" />
        </mxCell>
        <mxCell id="Upe7RPbjq_lGZQcst3nU-79" value="" style="shape=cylinder3;whiteSpace=wrap;html=1;boundedLbl=1;backgroundOutline=1;size=15;strokeWidth=2;fillColor=#d5e8d4;strokeColor=#82b366;" parent="1" vertex="1">
          <mxGeometry x="142.61999999999998" y="1076.5" width="76.5" height="60" as="geometry" />
        </mxCell>
        <mxCell id="Upe7RPbjq_lGZQcst3nU-80" value="&lt;br&gt;Oracle&amp;nbsp;" style="text;html=1;strokeColor=none;fillColor=none;align=center;verticalAlign=middle;whiteSpace=wrap;rounded=0;" parent="1" vertex="1">
          <mxGeometry x="125.99999999999997" y="1102" width="105" height="30" as="geometry" />
        </mxCell>
        <mxCell id="Upe7RPbjq_lGZQcst3nU-88" value="&lt;span lang=&quot;EN-GB&quot;&gt;New Announcement&lt;/span&gt;" style="text;html=1;strokeColor=none;fillColor=none;align=center;verticalAlign=middle;whiteSpace=wrap;rounded=0;" parent="1" vertex="1">
          <mxGeometry x="196.62000000000006" y="381" width="105" height="50" as="geometry" />
        </mxCell>
        <mxCell id="Upe7RPbjq_lGZQcst3nU-91" style="edgeStyle=orthogonalEdgeStyle;rounded=0;orthogonalLoop=1;jettySize=auto;html=1;exitX=0.5;exitY=1;exitDx=0;exitDy=0;fontSize=13;" parent="1" source="Upe7RPbjq_lGZQcst3nU-74" target="Upe7RPbjq_lGZQcst3nU-74" edge="1">
          <mxGeometry relative="1" as="geometry" />
        </mxCell>
        <mxCell id="9JFHtYomGAW6HpaSPqKZ-11" value="&lt;span lang=&quot;EN-GB&quot;&gt;External Service Integration&lt;br&gt;&lt;/span&gt;" style="text;html=1;strokeColor=none;fillColor=none;align=center;verticalAlign=middle;whiteSpace=wrap;rounded=0;" parent="1" vertex="1">
          <mxGeometry x="329" y="504" width="120" height="50" as="geometry" />
        </mxCell>
        <mxCell id="9JFHtYomGAW6HpaSPqKZ-15" value="&lt;span lang=&quot;EN-GB&quot;&gt;Dictionary/Banned Words Service&lt;/span&gt;" style="text;html=1;strokeColor=none;fillColor=none;align=center;verticalAlign=middle;whiteSpace=wrap;rounded=0;" parent="1" vertex="1">
          <mxGeometry x="161.08" y="777" width="93.5" height="50" as="geometry" />
        </mxCell>
        <mxCell id="9JFHtYomGAW6HpaSPqKZ-16" value="TOC Service" style="text;html=1;strokeColor=none;fillColor=none;align=center;verticalAlign=middle;whiteSpace=wrap;rounded=0;" parent="1" vertex="1">
          <mxGeometry x="67.7" y="829" width="82" height="29" as="geometry" />
        </mxCell>
        <mxCell id="9JFHtYomGAW6HpaSPqKZ-126" value="" style="aspect=fixed;html=1;points=[];align=center;image;fontSize=12;image=img/lib/azure2/general/Browser.svg;fillColor=none;" parent="1" vertex="1">
          <mxGeometry x="63.58" y="157" width="66.25" height="53" as="geometry" />
        </mxCell>
        <mxCell id="9JFHtYomGAW6HpaSPqKZ-128" value="" style="outlineConnect=0;dashed=0;verticalLabelPosition=bottom;verticalAlign=top;align=center;html=1;shape=mxgraph.aws3.internet_3;fillColor=#D2D3D3;gradientColor=none;fontSize=13;" parent="1" vertex="1">
          <mxGeometry x="225.58" y="157" width="161.5" height="53" as="geometry" />
        </mxCell>
        <mxCell id="9JFHtYomGAW6HpaSPqKZ-129" value="Internet" style="text;html=1;strokeColor=none;fillColor=none;align=center;verticalAlign=middle;whiteSpace=wrap;rounded=0;" parent="1" vertex="1">
          <mxGeometry x="347.08000000000004" y="160" width="132.5" height="50" as="geometry" />
        </mxCell>
        <mxCell id="9JFHtYomGAW6HpaSPqKZ-131" value="&lt;span lang=&quot;EN-GB&quot;&gt;&amp;nbsp;Announcement Service&lt;/span&gt;" style="text;html=1;strokeColor=none;fillColor=none;align=center;verticalAlign=middle;whiteSpace=wrap;rounded=0;" parent="1" vertex="1">
          <mxGeometry x="62.83" y="786" width="93" height="42" as="geometry" />
        </mxCell>
        <mxCell id="9JFHtYomGAW6HpaSPqKZ-134" value="HTTP/HTTPS" style="text;html=1;strokeColor=none;fillColor=none;align=center;verticalAlign=middle;whiteSpace=wrap;rounded=0;" parent="1" vertex="1">
          <mxGeometry x="196.00000000000003" y="213" width="132.5" height="50" as="geometry" />
        </mxCell>
        <mxCell id="9JFHtYomGAW6HpaSPqKZ-140" value="&lt;span lang=&quot;EN-GB&quot;&gt;Report Announcement Service&lt;/span&gt;" style="text;html=1;strokeColor=none;fillColor=none;align=center;verticalAlign=middle;whiteSpace=wrap;rounded=0;" parent="1" vertex="1">
          <mxGeometry x="153.73" y="828.5" width="100.85" height="40" as="geometry" />
        </mxCell>
        <mxCell id="9JFHtYomGAW6HpaSPqKZ-147" value="Sign-in" style="text;html=1;strokeColor=none;fillColor=none;align=center;verticalAlign=middle;whiteSpace=wrap;rounded=0;" parent="1" vertex="1">
          <mxGeometry x="44.58" y="310" width="130" height="40" as="geometry" />
        </mxCell>
        <mxCell id="blcPtwq0HRkPqj8c_XCj-7" value="" style="rounded=1;arcSize=10;dashed=1;strokeColor=#1A1A1A;fillColor=none;gradientColor=none;dashPattern=8 4;strokeWidth=1;fontColor=#660066;" parent="1" vertex="1">
          <mxGeometry x="60" y="660" width="400" height="70" as="geometry" />
        </mxCell>
        <mxCell id="blcPtwq0HRkPqj8c_XCj-9" value="Rest&lt;font color=&quot;#1a1a1a&quot;&gt;ful&lt;br&gt;&lt;/font&gt;" style="rounded=1;whiteSpace=wrap;html=1;fontColor=#660066;strokeColor=#1A1A1A;fillColor=none;" parent="1" vertex="1">
          <mxGeometry x="181" y="677" width="150" height="35.25" as="geometry" />
        </mxCell>
        <mxCell id="blcPtwq0HRkPqj8c_XCj-14" value="&lt;font color=&quot;#660066&quot;&gt;&lt;b&gt;USER INTERFACE&lt;/b&gt;&lt;/font&gt;" style="rounded=1;whiteSpace=wrap;html=1;strokeWidth=0;strokeColor=none;" parent="1" vertex="1">
          <mxGeometry x="52.5" y="269" width="120" height="19" as="geometry" />
        </mxCell>
        <mxCell id="blcPtwq0HRkPqj8c_XCj-16" value="&lt;font color=&quot;#660066&quot;&gt;&lt;b&gt;API Layer&lt;/b&gt;&lt;/font&gt;" style="rounded=1;whiteSpace=wrap;html=1;strokeWidth=0;strokeColor=none;" parent="1" vertex="1">
          <mxGeometry x="69.58" y="649" width="80" height="15" as="geometry" />
        </mxCell>
        <mxCell id="blcPtwq0HRkPqj8c_XCj-18" value="&lt;font color=&quot;#660066&quot;&gt;&lt;b&gt;Service Layer&lt;/b&gt;&lt;/font&gt;" style="rounded=1;whiteSpace=wrap;html=1;strokeWidth=0;strokeColor=none;" parent="1" vertex="1">
          <mxGeometry x="71.08" y="746" width="90" height="17" as="geometry" />
        </mxCell>
        <mxCell id="blcPtwq0HRkPqj8c_XCj-19" value="DTO" style="rounded=1;whiteSpace=wrap;html=1;strokeColor=#1A1A1A;fillColor=#d5e8d4;strokeWidth=1;" parent="1" vertex="1">
          <mxGeometry x="357" y="720" width="73" height="50" as="geometry" />
        </mxCell>
        <mxCell id="blcPtwq0HRkPqj8c_XCj-20" value="" style="rounded=1;arcSize=10;dashed=1;strokeColor=#1A1A1A;fillColor=none;gradientColor=none;dashPattern=8 4;strokeWidth=1;fontColor=#660066;" parent="1" vertex="1">
          <mxGeometry x="59" y="950" width="380" height="60" as="geometry" />
        </mxCell>
        <mxCell id="blcPtwq0HRkPqj8c_XCj-21" value="&lt;font color=&quot;#660066&quot;&gt;&lt;b&gt;Data Access Layer&lt;/b&gt;&lt;/font&gt;" style="rounded=1;whiteSpace=wrap;html=1;strokeWidth=0;strokeColor=none;" parent="1" vertex="1">
          <mxGeometry x="61.08" y="942.5" width="110" height="13.5" as="geometry" />
        </mxCell>
        <mxCell id="blcPtwq0HRkPqj8c_XCj-22" value="Domain Entity" style="rounded=1;whiteSpace=wrap;html=1;strokeColor=#1A1A1A;fillColor=#d5e8d4;strokeWidth=1;" parent="1" vertex="1">
          <mxGeometry x="351.9" y="920.5" width="73" height="40" as="geometry" />
        </mxCell>
        <mxCell id="blcPtwq0HRkPqj8c_XCj-23" value="&lt;font color=&quot;#1a1a1a&quot;&gt;Repository&lt;/font&gt;" style="rounded=1;whiteSpace=wrap;html=1;strokeColor=#1A1A1A;fillColor=#d5e8d4;" parent="1" vertex="1">
          <mxGeometry x="136.62" y="967.0000000000001" width="120" height="40" as="geometry" />
        </mxCell>
        <mxCell id="blcPtwq0HRkPqj8c_XCj-24" value="" style="rounded=1;arcSize=10;dashed=1;fillColor=none;gradientColor=none;dashPattern=1 1;strokeWidth=1;fontColor=#1A1A1A;" parent="1" vertex="1">
          <mxGeometry x="470" y="667" width="190" height="263" as="geometry" />
        </mxCell>
        <mxCell id="blcPtwq0HRkPqj8c_XCj-25" value="" style="rounded=1;whiteSpace=wrap;html=1;fontColor=#1A1A1A;strokeColor=#1A1A1A;fillColor=none;" parent="1" vertex="1">
          <mxGeometry x="50" y="310" width="120" height="50" as="geometry" />
        </mxCell>
        <mxCell id="blcPtwq0HRkPqj8c_XCj-26" value="Manage TOCs" style="rounded=1;whiteSpace=wrap;html=1;fontColor=#1A1A1A;strokeColor=#1A1A1A;fillColor=none;" parent="1" vertex="1">
          <mxGeometry x="183.57999999999998" y="310" width="120" height="50" as="geometry" />
        </mxCell>
        <mxCell id="blcPtwq0HRkPqj8c_XCj-27" value="" style="rounded=1;whiteSpace=wrap;html=1;fontColor=#1A1A1A;strokeColor=#1A1A1A;fillColor=none;" parent="1" vertex="1">
          <mxGeometry x="331" y="379" width="120" height="50" as="geometry" />
        </mxCell>
        <mxCell id="blcPtwq0HRkPqj8c_XCj-28" value="" style="rounded=1;whiteSpace=wrap;html=1;fontColor=#1A1A1A;strokeColor=#1A1A1A;fillColor=none;" parent="1" vertex="1">
          <mxGeometry x="45.25" y="507.5" width="120" height="50" as="geometry" />
        </mxCell>
        <mxCell id="blcPtwq0HRkPqj8c_XCj-29" value="" style="rounded=1;whiteSpace=wrap;html=1;fontColor=#1A1A1A;strokeColor=#1A1A1A;fillColor=none;" parent="1" vertex="1">
          <mxGeometry x="322.84000000000003" y="504" width="120" height="50" as="geometry" />
        </mxCell>
        <mxCell id="blcPtwq0HRkPqj8c_XCj-30" value="" style="rounded=1;whiteSpace=wrap;html=1;fontColor=#1A1A1A;strokeColor=#1A1A1A;fillColor=none;" parent="1" vertex="1">
          <mxGeometry x="183.57999999999998" y="507.5" width="120" height="50" as="geometry" />
        </mxCell>
        <mxCell id="blcPtwq0HRkPqj8c_XCj-31" value="" style="rounded=1;whiteSpace=wrap;html=1;fontColor=#1A1A1A;strokeColor=#1A1A1A;fillColor=none;" parent="1" vertex="1">
          <mxGeometry x="45.25" y="374" width="120" height="50" as="geometry" />
        </mxCell>
        <mxCell id="blcPtwq0HRkPqj8c_XCj-32" value="" style="rounded=1;whiteSpace=wrap;html=1;fontColor=#1A1A1A;strokeColor=#1A1A1A;fillColor=none;" parent="1" vertex="1">
          <mxGeometry x="186.75" y="450" width="120" height="50" as="geometry" />
        </mxCell>
        <mxCell id="blcPtwq0HRkPqj8c_XCj-33" value="" style="rounded=1;whiteSpace=wrap;html=1;fontColor=#1A1A1A;strokeColor=#1A1A1A;fillColor=none;" parent="1" vertex="1">
          <mxGeometry x="185.54" y="379" width="120" height="50" as="geometry" />
        </mxCell>
        <mxCell id="blcPtwq0HRkPqj8c_XCj-34" value="" style="rounded=1;whiteSpace=wrap;html=1;fontColor=#1A1A1A;strokeColor=#1A1A1A;fillColor=none;" parent="1" vertex="1">
          <mxGeometry x="45" y="442.75" width="120" height="50" as="geometry" />
        </mxCell>
        <mxCell id="blcPtwq0HRkPqj8c_XCj-37" value="" style="rounded=1;whiteSpace=wrap;html=1;fontColor=#1A1A1A;strokeColor=#1A1A1A;fillColor=none;" parent="1" vertex="1">
          <mxGeometry x="319.75" y="442.75" width="126.17" height="50" as="geometry" />
        </mxCell>
        <mxCell id="blcPtwq0HRkPqj8c_XCj-38" value="" style="rounded=1;whiteSpace=wrap;html=1;fontColor=#1A1A1A;strokeColor=#1A1A1A;fillColor=none;" parent="1" vertex="1">
          <mxGeometry x="532.5" y="305" width="120" height="40" as="geometry" />
        </mxCell>
        <mxCell id="blcPtwq0HRkPqj8c_XCj-39" value="" style="rounded=1;whiteSpace=wrap;html=1;fontColor=#1A1A1A;strokeColor=#1A1A1A;fillColor=none;" parent="1" vertex="1">
          <mxGeometry x="532.5" y="350" width="120" height="40" as="geometry" />
        </mxCell>
        <mxCell id="blcPtwq0HRkPqj8c_XCj-40" value="" style="rounded=1;whiteSpace=wrap;html=1;fontColor=#1A1A1A;strokeColor=#1A1A1A;fillColor=none;" parent="1" vertex="1">
          <mxGeometry x="532.5" y="394" width="120" height="40" as="geometry" />
        </mxCell>
        <mxCell id="blcPtwq0HRkPqj8c_XCj-41" value="" style="rounded=1;whiteSpace=wrap;html=1;fontColor=#1A1A1A;strokeColor=#1A1A1A;fillColor=none;" parent="1" vertex="1">
          <mxGeometry x="496" y="498" width="83.5" height="31" as="geometry" />
        </mxCell>
        <mxCell id="blcPtwq0HRkPqj8c_XCj-44" value="&lt;font color=&quot;#660066&quot;&gt;&lt;b&gt;External Services&lt;/b&gt;&lt;/font&gt;" style="rounded=1;whiteSpace=wrap;html=1;fontColor=#1A1A1A;strokeColor=#FFFFFF;fillColor=default;" parent="1" vertex="1">
          <mxGeometry x="527" y="269" width="120" height="19" as="geometry" />
        </mxCell>
        <mxCell id="blcPtwq0HRkPqj8c_XCj-50" value="" style="rounded=1;whiteSpace=wrap;html=1;fontColor=#1A1A1A;strokeColor=#1A1A1A;fillColor=none;" parent="1" vertex="1">
          <mxGeometry x="65.77" y="782" width="87.13" height="39" as="geometry" />
        </mxCell>
        <mxCell id="blcPtwq0HRkPqj8c_XCj-56" value="Security" style="rounded=1;whiteSpace=wrap;html=1;fontColor=#1A1A1A;strokeColor=#1A1A1A;fillColor=none;" parent="1" vertex="1">
          <mxGeometry x="505.79" y="687" width="108.92" height="40" as="geometry" />
        </mxCell>
        <mxCell id="blcPtwq0HRkPqj8c_XCj-57" value="Logging" style="rounded=1;whiteSpace=wrap;html=1;fontColor=#1A1A1A;strokeColor=#1A1A1A;fillColor=none;" parent="1" vertex="1">
          <mxGeometry x="505.24999999999994" y="734.5" width="108.92" height="40" as="geometry" />
        </mxCell>
        <mxCell id="blcPtwq0HRkPqj8c_XCj-58" value="Handle Error" style="rounded=1;whiteSpace=wrap;html=1;fontColor=#1A1A1A;strokeColor=#1A1A1A;fillColor=none;" parent="1" vertex="1">
          <mxGeometry x="502.99999999999994" y="783" width="108.92" height="40" as="geometry" />
        </mxCell>
        <mxCell id="blcPtwq0HRkPqj8c_XCj-59" value="Utilities" style="rounded=1;whiteSpace=wrap;html=1;fontColor=#1A1A1A;strokeColor=#1A1A1A;fillColor=none;" parent="1" vertex="1">
          <mxGeometry x="502.99999999999994" y="831" width="108.92" height="40" as="geometry" />
        </mxCell>
        <mxCell id="blcPtwq0HRkPqj8c_XCj-60" value="&lt;font color=&quot;#660066&quot;&gt;&lt;b&gt;Cross Concern Modules&lt;/b&gt;&lt;/font&gt;" style="rounded=1;whiteSpace=wrap;html=1;strokeWidth=0;strokeColor=none;" parent="1" vertex="1">
          <mxGeometry x="479.58" y="655" width="149.42" height="16" as="geometry" />
        </mxCell>
        <mxCell id="blcPtwq0HRkPqj8c_XCj-62" value="&lt;font color=&quot;#660066&quot;&gt;&lt;b&gt;Backend&lt;/b&gt;&lt;/font&gt;" style="rounded=1;whiteSpace=wrap;html=1;strokeWidth=0;strokeColor=none;" parent="1" vertex="1">
          <mxGeometry x="59" y="616" width="70.83" height="15" as="geometry" />
        </mxCell>
        <mxCell id="blcPtwq0HRkPqj8c_XCj-64" value="&lt;font color=&quot;#660066&quot;&gt;&lt;b&gt;Data Storage&lt;/b&gt;&lt;/font&gt;" style="rounded=1;whiteSpace=wrap;html=1;strokeWidth=0;strokeColor=none;" parent="1" vertex="1">
          <mxGeometry x="51" y="1061" width="84" height="13" as="geometry" />
        </mxCell>
        <mxCell id="blcPtwq0HRkPqj8c_XCj-72" value="Manage language" style="rounded=1;whiteSpace=wrap;html=1;fontColor=#1A1A1A;strokeColor=#1A1A1A;fillColor=none;" parent="1" vertex="1">
          <mxGeometry x="325.91999999999996" y="310" width="120" height="50" as="geometry" />
        </mxCell>
        <mxCell id="blcPtwq0HRkPqj8c_XCj-75" value="" style="endArrow=classic;html=1;rounded=0;fontColor=#1A1A1A;entryX=0;entryY=0.7;entryDx=0;entryDy=0;entryPerimeter=0;exitX=1.011;exitY=0.733;exitDx=0;exitDy=0;exitPerimeter=0;strokeWidth=2;" parent="1" source="9JFHtYomGAW6HpaSPqKZ-126" target="9JFHtYomGAW6HpaSPqKZ-128" edge="1">
          <mxGeometry width="50" height="50" relative="1" as="geometry">
            <mxPoint x="170" y="189" as="sourcePoint" />
            <mxPoint x="220" y="170" as="targetPoint" />
          </mxGeometry>
        </mxCell>
        <mxCell id="blcPtwq0HRkPqj8c_XCj-76" value="" style="endArrow=classic;html=1;rounded=0;fontColor=#1A1A1A;entryX=0.63;entryY=-0.013;entryDx=0;entryDy=0;entryPerimeter=0;strokeWidth=2;" parent="1" source="9JFHtYomGAW6HpaSPqKZ-128" target="blcPtwq0HRkPqj8c_XCj-3" edge="1">
          <mxGeometry width="50" height="50" relative="1" as="geometry">
            <mxPoint x="290" y="220" as="sourcePoint" />
            <mxPoint x="352.49999999999994" y="250.36" as="targetPoint" />
            <Array as="points" />
          </mxGeometry>
        </mxCell>
        <mxCell id="blcPtwq0HRkPqj8c_XCj-79" value="" style="endArrow=classic;html=1;rounded=0;fontColor=#1A1A1A;strokeWidth=2;" parent="1" edge="1">
          <mxGeometry width="50" height="50" relative="1" as="geometry">
            <mxPoint x="262" y="578" as="sourcePoint" />
            <mxPoint x="262" y="680" as="targetPoint" />
            <Array as="points" />
          </mxGeometry>
        </mxCell>
        <mxCell id="blcPtwq0HRkPqj8c_XCj-80" value="" style="endArrow=classic;html=1;rounded=0;fontColor=#1A1A1A;strokeWidth=2;" parent="1" edge="1">
          <mxGeometry width="50" height="50" relative="1" as="geometry">
            <mxPoint x="191.07999999999998" y="1011.5" as="sourcePoint" />
            <mxPoint x="191.07999999999998" y="1076.5" as="targetPoint" />
            <Array as="points" />
          </mxGeometry>
        </mxCell>
        <mxCell id="blcPtwq0HRkPqj8c_XCj-81" value="Port 1521" style="text;html=1;strokeColor=none;fillColor=none;align=center;verticalAlign=middle;whiteSpace=wrap;rounded=0;fontColor=#1A1A1A;" parent="1" vertex="1">
          <mxGeometry x="219.12" y="1040" width="60" height="30" as="geometry" />
        </mxCell>
        <mxCell id="blcPtwq0HRkPqj8c_XCj-82" value="API" style="text;html=1;strokeColor=none;fillColor=none;align=center;verticalAlign=middle;whiteSpace=wrap;rounded=0;fontColor=#1A1A1A;" parent="1" vertex="1">
          <mxGeometry x="246.75" y="590" width="60" height="30" as="geometry" />
        </mxCell>
        <mxCell id="blcPtwq0HRkPqj8c_XCj-83" value="" style="endArrow=classic;html=1;rounded=0;fontColor=#1A1A1A;strokeWidth=2;" parent="1" edge="1">
          <mxGeometry width="50" height="50" relative="1" as="geometry">
            <mxPoint x="260" y="730" as="sourcePoint" />
            <mxPoint x="260" y="760" as="targetPoint" />
            <Array as="points" />
          </mxGeometry>
        </mxCell>
        <mxCell id="SI5CeVH-I_0jClqeCx39-2" value="Voice/Language Service" style="rounded=1;whiteSpace=wrap;html=1;fontColor=#1A1A1A;strokeColor=#1A1A1A;fillColor=none;" parent="1" vertex="1">
          <mxGeometry x="366.75" y="783" width="88.1" height="39" as="geometry" />
        </mxCell>
        <mxCell id="SI5CeVH-I_0jClqeCx39-4" value="Location Service" style="rounded=1;whiteSpace=wrap;html=1;fontColor=#1A1A1A;strokeColor=#1A1A1A;fillColor=none;" parent="1" vertex="1">
          <mxGeometry x="371.81" y="829.5" width="83.04" height="37.5" as="geometry" />
        </mxCell>
        <mxCell id="SI5CeVH-I_0jClqeCx39-5" value="&lt;span style=&quot;font-size:11.0pt;line-height:&lt;br/&gt;120%;font-family:&amp;quot;Arial&amp;quot;,sans-serif;mso-fareast-font-family:Calibri;mso-fareast-theme-font:&lt;br/&gt;minor-latin;mso-ansi-language:EN-GB;mso-fareast-language:EN-US;mso-bidi-language:&lt;br/&gt;AR-SA&quot; lang=&quot;EN-GB&quot;&gt;Application Architecture&lt;/span&gt;" style="text;html=1;align=center;verticalAlign=middle;resizable=0;points=[];autosize=1;strokeColor=none;fillColor=none;fontColor=#1A1A1A;" parent="1" vertex="1">
          <mxGeometry x="25.5" y="10" width="143" height="26" as="geometry" />
        </mxCell>
        <mxCell id="T0MDe37_gaRGIy5fR7pK-3" value="Mail Server" style="text;html=1;strokeColor=none;fillColor=none;align=center;verticalAlign=middle;whiteSpace=wrap;rounded=0;" parent="1" vertex="1">
          <mxGeometry x="540.35" y="541" width="74.29" height="30" as="geometry" />
        </mxCell>
        <mxCell id="T0MDe37_gaRGIy5fR7pK-5" value="" style="rounded=1;whiteSpace=wrap;html=1;fontColor=#1A1A1A;strokeColor=#1A1A1A;fillColor=none;" parent="1" vertex="1">
          <mxGeometry x="596.5" y="497.5" width="83.5" height="30.5" as="geometry" />
        </mxCell>
        <mxCell id="T0MDe37_gaRGIy5fR7pK-6" value="" style="rounded=1;whiteSpace=wrap;html=1;fontColor=#1A1A1A;strokeColor=#1A1A1A;fillColor=none;" parent="1" vertex="1">
          <mxGeometry x="532.5" y="541" width="83.5" height="29" as="geometry" />
        </mxCell>
        <mxCell id="T0MDe37_gaRGIy5fR7pK-7" value="&lt;font color=&quot;#660066&quot;&gt;&lt;b&gt;Network Rail Services&lt;/b&gt;&lt;/font&gt;" style="rounded=1;whiteSpace=wrap;html=1;fontColor=#1A1A1A;strokeColor=#FFFFFF;fillColor=default;" parent="1" vertex="1">
          <mxGeometry x="493.08" y="459" width="139" height="17.5" as="geometry" />
        </mxCell>
        <mxCell id="T0MDe37_gaRGIy5fR7pK-9" value="" style="endArrow=classic;startArrow=classic;html=1;rounded=0;exitX=0.75;exitY=0;exitDx=0;exitDy=0;entryX=0.25;entryY=1;entryDx=0;entryDy=0;strokeWidth=2;" parent="1" source="blcPtwq0HRkPqj8c_XCj-61" target="blcPtwq0HRkPqj8c_XCj-41" edge="1">
          <mxGeometry width="50" height="50" relative="1" as="geometry">
            <mxPoint x="377" y="548" as="sourcePoint" />
            <mxPoint x="427" y="498" as="targetPoint" />
          </mxGeometry>
        </mxCell>
        <mxCell id="T0MDe37_gaRGIy5fR7pK-10" value="" style="endArrow=classic;startArrow=classic;html=1;rounded=0;exitX=0.75;exitY=0;exitDx=0;exitDy=0;entryX=0.25;entryY=1;entryDx=0;entryDy=0;strokeWidth=2;" parent="1" edge="1">
          <mxGeometry width="50" height="50" relative="1" as="geometry">
            <mxPoint x="637.13" y="623" as="sourcePoint" />
            <mxPoint x="636.505" y="532" as="targetPoint" />
          </mxGeometry>
        </mxCell>
        <mxCell id="T0MDe37_gaRGIy5fR7pK-11" value="" style="endArrow=classic;startArrow=classic;html=1;rounded=0;entryX=0.25;entryY=1;entryDx=0;entryDy=0;strokeWidth=2;" parent="1" edge="1">
          <mxGeometry width="50" height="50" relative="1" as="geometry">
            <mxPoint x="571" y="619" as="sourcePoint" />
            <mxPoint x="571.005" y="570" as="targetPoint" />
          </mxGeometry>
        </mxCell>
        <mxCell id="T0MDe37_gaRGIy5fR7pK-12" value="" style="endArrow=classic;startArrow=classic;html=1;rounded=0;strokeWidth=2;exitX=0.999;exitY=0.44;exitDx=0;exitDy=0;exitPerimeter=0;" parent="1" source="blcPtwq0HRkPqj8c_XCj-3" edge="1">
          <mxGeometry width="50" height="50" relative="1" as="geometry">
            <mxPoint x="485.25" y="455" as="sourcePoint" />
            <mxPoint x="533" y="412" as="targetPoint" />
            <Array as="points">
              <mxPoint x="501" y="412" />
            </Array>
          </mxGeometry>
        </mxCell>
        <mxCell id="T0MDe37_gaRGIy5fR7pK-13" value="" style="endArrow=classic;startArrow=classic;html=1;rounded=0;strokeWidth=2;exitX=0.999;exitY=0.44;exitDx=0;exitDy=0;exitPerimeter=0;" parent="1" edge="1">
          <mxGeometry width="50" height="50" relative="1" as="geometry">
            <mxPoint x="468.05999999999995" y="367" as="sourcePoint" />
            <mxPoint x="532.5" y="367" as="targetPoint" />
            <Array as="points">
              <mxPoint x="500.5" y="367" />
            </Array>
          </mxGeometry>
        </mxCell>
        <mxCell id="T0MDe37_gaRGIy5fR7pK-14" value="" style="endArrow=classic;startArrow=classic;html=1;rounded=0;strokeWidth=2;exitX=0.999;exitY=0.117;exitDx=0;exitDy=0;exitPerimeter=0;" parent="1" source="blcPtwq0HRkPqj8c_XCj-61" edge="1">
          <mxGeometry width="50" height="50" relative="1" as="geometry">
            <mxPoint x="377" y="548" as="sourcePoint" />
            <mxPoint x="653" y="325" as="targetPoint" />
            <Array as="points">
              <mxPoint x="709" y="668" />
              <mxPoint x="703" y="325" />
            </Array>
          </mxGeometry>
        </mxCell>
        <mxCell id="T0MDe37_gaRGIy5fR7pK-15" value="Restful" style="text;html=1;align=center;verticalAlign=middle;resizable=0;points=[];autosize=1;strokeColor=none;fillColor=none;" parent="1" vertex="1">
          <mxGeometry x="463" y="337" width="55" height="26" as="geometry" />
        </mxCell>
        <mxCell id="T0MDe37_gaRGIy5fR7pK-16" value="Restful" style="text;html=1;align=center;verticalAlign=middle;resizable=0;points=[];autosize=1;strokeColor=none;fillColor=none;" parent="1" vertex="1">
          <mxGeometry x="464" y="386" width="55" height="26" as="geometry" />
        </mxCell>
        <mxCell id="T0MDe37_gaRGIy5fR7pK-17" value="Restful" style="text;html=1;align=center;verticalAlign=middle;resizable=0;points=[];autosize=1;strokeColor=none;fillColor=none;" parent="1" vertex="1">
          <mxGeometry x="460.75" y="590" width="55" height="26" as="geometry" />
        </mxCell>
        <mxCell id="T0MDe37_gaRGIy5fR7pK-18" value="Restful" style="text;html=1;align=center;verticalAlign=middle;resizable=0;points=[];autosize=1;strokeColor=none;fillColor=none;" parent="1" vertex="1">
          <mxGeometry x="637.75" y="594" width="55" height="26" as="geometry" />
        </mxCell>
        <mxCell id="T0MDe37_gaRGIy5fR7pK-20" value="SMTP" style="text;html=1;align=center;verticalAlign=middle;resizable=0;points=[];autosize=1;strokeColor=none;fillColor=none;" parent="1" vertex="1">
          <mxGeometry x="572" y="592" width="51" height="26" as="geometry" />
        </mxCell>
        <mxCell id="T0MDe37_gaRGIy5fR7pK-21" style="edgeStyle=orthogonalEdgeStyle;rounded=0;orthogonalLoop=1;jettySize=auto;html=1;exitX=0;exitY=0.75;exitDx=0;exitDy=0;entryX=0.096;entryY=0.742;entryDx=0;entryDy=0;entryPerimeter=0;strokeWidth=2;" parent="1" source="blcPtwq0HRkPqj8c_XCj-41" target="blcPtwq0HRkPqj8c_XCj-41" edge="1">
          <mxGeometry relative="1" as="geometry" />
        </mxCell>
        <mxCell id="T0MDe37_gaRGIy5fR7pK-22" value="" style="rounded=0;whiteSpace=wrap;html=1;strokeWidth=0;fillColor=#d5e8d4;strokeColor=#82b366;" parent="1" vertex="1">
          <mxGeometry x="397.21999999999997" y="1092" width="82.36" height="29" as="geometry" />
        </mxCell>
        <mxCell id="T0MDe37_gaRGIy5fR7pK-24" value="" style="rounded=0;whiteSpace=wrap;html=1;strokeWidth=0;fillColor=#e1d5e7;strokeColor=#9673a6;" parent="1" vertex="1">
          <mxGeometry x="512" y="1092" width="82.36" height="29" as="geometry" />
        </mxCell>
        <mxCell id="T0MDe37_gaRGIy5fR7pK-25" value="" style="rounded=0;whiteSpace=wrap;html=1;strokeWidth=0;fillColor=#f8cecc;strokeColor=#b85450;" parent="1" vertex="1">
          <mxGeometry x="627" y="1092" width="82.36" height="29" as="geometry" />
        </mxCell>
        <mxCell id="T0MDe37_gaRGIy5fR7pK-39" value="OTPA UI" style="text;html=1;align=center;verticalAlign=middle;resizable=0;points=[];autosize=1;strokeColor=none;fillColor=none;" parent="1" vertex="1">
          <mxGeometry x="405" y="1121" width="64" height="26" as="geometry" />
        </mxCell>
        <mxCell id="T0MDe37_gaRGIy5fR7pK-40" value="NR Services" style="text;html=1;align=center;verticalAlign=middle;resizable=0;points=[];autosize=1;strokeColor=none;fillColor=none;" parent="1" vertex="1">
          <mxGeometry x="505.25" y="1121" width="85" height="26" as="geometry" />
        </mxCell>
        <mxCell id="T0MDe37_gaRGIy5fR7pK-41" value="External Services" style="text;html=1;align=center;verticalAlign=middle;resizable=0;points=[];autosize=1;strokeColor=none;fillColor=none;" parent="1" vertex="1">
          <mxGeometry x="619" y="1121" width="111" height="26" as="geometry" />
        </mxCell>
        <mxCell id="P5yfNrT6ahGt9bKfC_W1-2" value="" style="endArrow=classic;startArrow=classic;html=1;rounded=0;strokeWidth=2;exitX=0.999;exitY=0.44;exitDx=0;exitDy=0;exitPerimeter=0;" parent="1" edge="1">
          <mxGeometry width="50" height="50" relative="1" as="geometry">
            <mxPoint x="469.99999999999994" y="324.5" as="sourcePoint" />
            <mxPoint x="534.44" y="324.5" as="targetPoint" />
            <Array as="points">
              <mxPoint x="502.44" y="324.5" />
            </Array>
          </mxGeometry>
        </mxCell>
        <mxCell id="P5yfNrT6ahGt9bKfC_W1-4" value="" style="rounded=1;whiteSpace=wrap;html=1;fontColor=#1A1A1A;strokeColor=#1A1A1A;fillColor=none;" parent="1" vertex="1">
          <mxGeometry x="158" y="782" width="102" height="39" as="geometry" />
        </mxCell>
        <mxCell id="P5yfNrT6ahGt9bKfC_W1-5" value="" style="rounded=1;whiteSpace=wrap;html=1;fontColor=#1A1A1A;strokeColor=#1A1A1A;fillColor=none;" parent="1" vertex="1">
          <mxGeometry x="268.31" y="782" width="93.38" height="39" as="geometry" />
        </mxCell>
        <mxCell id="P5yfNrT6ahGt9bKfC_W1-7" value="" style="rounded=1;whiteSpace=wrap;html=1;fontColor=#1A1A1A;strokeColor=#1A1A1A;fillColor=none;" parent="1" vertex="1">
          <mxGeometry x="65.14" y="829" width="87.13" height="39" as="geometry" />
        </mxCell>
        <mxCell id="P5yfNrT6ahGt9bKfC_W1-8" value="" style="rounded=1;whiteSpace=wrap;html=1;fontColor=#1A1A1A;strokeColor=#1A1A1A;fillColor=none;" parent="1" vertex="1">
          <mxGeometry x="161.08" y="828" width="97.92" height="39" as="geometry" />
        </mxCell>
        <mxCell id="P5yfNrT6ahGt9bKfC_W1-9" value="" style="rounded=1;whiteSpace=wrap;html=1;fontColor=#1A1A1A;strokeColor=#1A1A1A;fillColor=none;" parent="1" vertex="1">
          <mxGeometry x="266.04" y="829.5" width="97.92" height="39" as="geometry" />
        </mxCell>
        <mxCell id="P5yfNrT6ahGt9bKfC_W1-10" value="External Service Integration" style="rounded=1;whiteSpace=wrap;html=1;fontColor=#1A1A1A;strokeColor=#1A1A1A;fillColor=none;" parent="1" vertex="1">
          <mxGeometry x="65" y="877" width="88" height="39" as="geometry" />
        </mxCell>
        <mxCell id="P5yfNrT6ahGt9bKfC_W1-11" value="Common Service" style="rounded=1;whiteSpace=wrap;html=1;fontColor=#1A1A1A;strokeColor=#1A1A1A;fillColor=none;" parent="1" vertex="1">
          <mxGeometry x="161.08" y="877" width="97.92" height="39" as="geometry" />
        </mxCell>
        <mxCell id="P5yfNrT6ahGt9bKfC_W1-14" value="Caching" style="rounded=1;whiteSpace=wrap;html=1;fontColor=#1A1A1A;strokeColor=#1A1A1A;fillColor=none;" parent="1" vertex="1">
          <mxGeometry x="503" y="880.5" width="108.92" height="40" as="geometry" />
        </mxCell>
        <mxCell id="x3155q_XkF1zQvlg1TGq-1" value="Notifications" style="rounded=1;whiteSpace=wrap;html=1;fontColor=#1A1A1A;strokeColor=#1A1A1A;fillColor=none;" vertex="1" parent="1">
          <mxGeometry x="266.03999999999996" y="877" width="97.92" height="39" as="geometry" />
        </mxCell>
      </root>
    </mxGraphModel>
  </diagram>
</mxfile>
